<svg width="2496" height="3035" viewBox="0 0 2496 3035" fill="none"
    xmlns="http://www.w3.org/2000/svg">
    <g id="Service 1" clip-path="url(#clip0_1_2)">
        <path id="Vector" d="M1363.36 2680.28C1370.56 2669.48 1366.36 2650.45 1363.36 2642.28C1380.86 2621.61 1418.16 2584.28 1427.36 2600.28C1438.86 2620.28 1470.36 2612.78 1523.86 2592.78C1566.66 2576.78 1581.36 2580.11 1583.36 2583.78C1622.36 2614.28 1571.36 2664.28 1544.36 2669.28C1517.36 2674.28 1475.36 2704.28 1466.36 2714.28C1457.36 2724.28 1398.36 2754.78 1372.36 2748.28C1346.36 2741.78 1354.36 2693.78 1363.36 2680.28Z" fill="#07113B"/>
        <path id="Vector_2" d="M956.359 2612.78L962.859 2499.78L1045.36 2357.28C1128.03 2327.11 1302.66 2270.98 1339.86 2287.78C1386.36 2308.78 1398.36 2360.28 1396.36 2396.28C1394.76 2425.08 1419.36 2541.28 1431.86 2595.78L1407.36 2627.28C1381.36 2652.48 1361.86 2650.45 1355.36 2646.28C1351.53 2629.45 1338.66 2587.78 1317.86 2555.78C1297.06 2523.78 1286.53 2463.11 1283.86 2436.78C1278.19 2440.61 1254.16 2458.58 1203.36 2499.78C1152.56 2540.98 1000.69 2597.95 956.359 2612.78Z" fill="#0D327A"/>
        <path id="Vector_3" d="M956.359 2612.78L962.859 2499.78C1034.95 2463.37 1193.01 2383.9 1248.5 2357.28C1317.86 2324 1376.72 2337.56 1396.36 2396.28C1394.76 2425.08 1419.36 2541.28 1431.86 2595.78L1407.36 2627.28C1381.36 2652.48 1361.86 2650.45 1355.36 2646.28C1351.53 2629.45 1338.66 2587.78 1317.86 2555.78C1297.06 2523.78 1286.53 2463.11 1283.86 2436.78C1278.19 2440.61 1254.16 2458.58 1203.36 2499.78C1152.56 2540.98 1000.69 2597.95 956.359 2612.78Z" fill="#07113B"/>
        <path id="Vector_4" d="M560.5 2419.5V1887.5H612.5L589 2419.5H560.5Z" fill="#FBCDA2"/>
        <path id="Vector_5" d="M1386 2884V2352H1438L1414.5 2884H1386Z" fill="#FBCDA2"/>
        <path id="Vector_6" d="M1751 2651V2119H1803L1779.5 2651H1751Z" fill="#FBCDA2"/>
        <path id="Vector_7" d="M944.511 1617.1C950.753 1613.91 958.174 1614.05 964.294 1617.47L1829 2100V2123.22C1829 2130.54 1825.19 2137.33 1818.94 2141.14L1430.05 2378.56C1423.54 2382.53 1415.38 2382.66 1408.75 2378.9L541.135 1886.54C534.562 1882.81 530.5 1875.83 530.5 1868.27V1828.5L944.511 1617.1Z" fill="#FBCDA2"/>
        <path id="Vector_8" d="M944.043 1584.89C950.523 1581.24 958.448 1581.29 964.88 1585.02L1818.92 2080.47C1832.82 2088.53 1832.88 2108.58 1819.04 2116.73L1430.01 2345.81C1423.51 2349.64 1415.46 2349.69 1408.92 2345.94L540.586 1848.39C526.444 1840.28 526.523 1819.86 540.727 1811.86L944.043 1584.89Z" fill="#FFEFE1"/>
        <path id="Vector_9" d="M1556.5 1556.62V1924.9C1556.5 1928.26 1554.4 1931.27 1551.23 1932.41L1527.24 1941.14C1524.88 1942 1522.26 1941.7 1520.16 1940.34L1095.88 1666.18C1093.75 1664.81 1092.4 1662.51 1092.24 1659.98L1069.71 1313.78C1069.58 1311.68 1070.27 1309.61 1071.65 1308.02L1088.17 1288.99C1090.69 1286.09 1094.9 1285.38 1098.22 1287.3L1552.5 1549.69C1554.98 1551.12 1556.5 1553.76 1556.5 1556.62Z" fill="#9D9D9D"/>
        <path id="Vector_10" d="M1251.5 1861.22C1277.18 1873.67 1302.41 1874.66 1307.86 1863.42C1313.3 1852.19 1296.9 1832.99 1271.22 1820.54C1245.54 1808.09 1220.31 1807.1 1214.86 1818.34C1209.42 1829.57 1225.82 1848.77 1251.5 1861.22Z" fill="#9D9D9D"/>
        <path id="Vector_11" d="M1255 1822V1779L1286 1788.5V1837L1276 1843L1255 1822Z" fill="#737373"/>
        <path id="Vector_12" d="M1245.5 1822V1779L1276.5 1788.5V1843L1245.5 1822Z" fill="#9D9D9D"/>
        <path id="Vector_13" d="M1067 1677.37V1315.86C1067 1309.7 1073.67 1305.85 1079 1308.93L1527 1567.69C1529.48 1569.12 1531 1571.76 1531 1574.62V1934.68C1531 1940.83 1524.35 1944.68 1519.02 1941.62L1071.02 1684.31C1068.53 1682.88 1067 1680.23 1067 1677.37Z" fill="#E4E4E4"/>
        <path id="Vector_14" d="M1092 1668.6V1362.11C1092 1355.96 1098.64 1352.11 1103.98 1355.17L1501.98 1583.08C1504.46 1584.51 1506 1587.16 1506 1590.02V1895.24C1506 1901.38 1499.37 1905.23 1494.04 1902.19L1096.04 1675.55C1093.54 1674.13 1092 1671.48 1092 1668.6Z" fill="white"/>
        <path id="Vector_15" d="M1112 1497.14V1420.04C1112 1413.84 1118.75 1410 1124.08 1413.16L1207.08 1462.37C1209.51 1463.81 1211 1466.42 1211 1469.25V1545.23C1211 1551.4 1204.32 1555.25 1198.99 1552.15L1115.99 1504.06C1113.52 1502.63 1112 1499.99 1112 1497.14Z" fill="#E4E4E4"/>
        <path id="Vector_16" d="M1382 1770.14V1693.04C1382 1686.84 1388.75 1683 1394.08 1686.16L1477.08 1735.37C1479.51 1736.81 1481 1739.42 1481 1742.25V1818.23C1481 1824.4 1474.32 1828.25 1468.99 1825.15L1385.99 1777.06C1383.52 1775.63 1382 1772.99 1382 1770.14Z" fill="#E4E4E4"/>
        <path id="Vector_17" d="M1112 1619V1541.53C1112 1535.45 1118.52 1531.59 1123.86 1534.52L1352.36 1660.22C1354.91 1661.63 1356.5 1664.31 1356.5 1667.23V1743.46C1356.5 1749.53 1350 1753.39 1344.67 1750.48L1116.17 1626.02C1113.6 1624.62 1112 1621.93 1112 1619Z" fill="#E4E4E4"/>
        <path id="Vector_18" d="M1236 1563V1485.53C1236 1479.45 1242.52 1475.59 1247.86 1478.52L1476.36 1604.22C1478.91 1605.63 1480.5 1608.31 1480.5 1611.23V1687.46C1480.5 1693.53 1474 1697.39 1468.67 1694.48L1240.17 1570.02C1237.6 1568.62 1236 1565.93 1236 1563Z" fill="#E4E4E4"/>
        <g id="khaki">
            <path id="Vector_19" d="M876 993.111V879.996C876 873.807 882.727 869.962 888.06 873.103L984.06 929.645C986.501 931.083 988 933.705 988 936.538V1049.08C988 1055.25 981.304 1059.1 975.971 1055.99L879.971 1000.02C877.512 998.589 876 995.957 876 993.111Z" fill="#FFEFE1"/>
            <path id="Vector_20" d="M851 594.308V408.972C851 402.788 857.716 398.942 863.05 402.073L1021.05 494.811C1023.5 496.248 1025 498.873 1025 501.71V686.1C1025 692.268 1018.31 696.116 1012.98 693.018L854.981 601.225C852.517 599.793 851 597.158 851 594.308Z" fill="#FBCDA2"/>
            <path id="Vector_21" d="M1364 626.189V484.99C1364 478.802 1370.72 474.957 1376.06 478.095L1496.06 548.71C1498.5 550.147 1500 552.77 1500 555.604V696.082C1500 702.254 1493.31 706.102 1487.97 702.995L1367.97 633.101C1365.51 631.668 1364 629.036 1364 626.189Z" fill="#FFEFE1"/>
            <path id="Vector_22" d="M633 256.111V142.996C633 136.807 639.727 132.962 645.06 136.103L741.06 192.645C743.501 194.083 745 196.705 745 199.538V312.076C745 318.249 738.304 322.097 732.971 318.987L636.971 263.022C634.512 261.589 633 258.957 633 256.111Z" fill="#FFEFE1"/>
            <path id="Vector_23" d="M106 1103.11V989.996C106 983.807 112.727 979.962 118.06 983.103L214.06 1039.65C216.501 1041.08 218 1043.71 218 1046.54V1159.08C218 1165.25 211.304 1169.1 205.971 1165.99L109.971 1110.02C107.512 1108.59 106 1105.96 106 1103.11Z" fill="#FFEFE1"/>
            <path id="Vector_24" d="M1430 300.644V241.052C1430 234.851 1436.75 231.007 1442.08 234.173L1492.08 263.853C1494.51 265.294 1496 267.909 1496 270.732V330.021C1496 336.206 1489.28 340.052 1483.95 336.919L1433.95 307.541C1431.5 306.105 1430 303.48 1430 300.644Z" fill="#FBCDA2"/>
            <path id="Vector_25" d="M1129 607.644V548.052C1129 541.851 1135.75 538.007 1141.08 541.173L1191.08 570.853C1193.51 572.294 1195 574.909 1195 577.732V637.021C1195 643.206 1188.28 647.052 1182.95 643.919L1132.95 614.541C1130.5 613.105 1129 610.48 1129 607.644Z" fill="#FBCDA2"/>
            <path id="Vector_26" d="M476 1556.64V1497.05C476 1490.85 482.751 1487.01 488.084 1490.17L538.084 1519.85C540.512 1521.29 542 1523.91 542 1526.73V1586.02C542 1592.21 535.28 1596.05 529.947 1592.92L479.947 1563.54C477.502 1562.1 476 1559.48 476 1556.64Z" fill="#FBCDA2"/>
            <path id="Vector_27" d="M282 848.644V789.052C282 782.851 288.751 779.007 294.084 782.173L344.084 811.853C346.512 813.294 348 815.909 348 818.732V878.021C348 884.206 341.28 888.052 335.947 884.919L285.947 855.541C283.502 854.105 282 851.48 282 848.644Z" fill="#FBCDA2"/>
            <path id="Vector_28" d="M1640 1400.64V1341.05C1640 1334.85 1646.75 1331.01 1652.08 1334.17L1702.08 1363.85C1704.51 1365.29 1706 1367.91 1706 1370.73V1430.02C1706 1436.21 1699.28 1440.05 1693.95 1436.92L1643.95 1407.54C1641.5 1406.1 1640 1403.48 1640 1400.64Z" fill="#FBCDA2"/>
            <path id="Vector_29" d="M2121 842.644V783.052C2121 776.851 2127.75 773.007 2133.08 776.173L2183.08 805.853C2185.51 807.294 2187 809.909 2187 812.732V872.021C2187 878.206 2180.28 882.052 2174.95 878.919L2124.95 849.541C2122.5 848.105 2121 845.48 2121 842.644Z" fill="#FBCDA2"/>
            <path id="Vector_30" d="M1933 1298.64V1239.05C1933 1232.85 1939.75 1229.01 1945.08 1232.17L1995.08 1261.85C1997.51 1263.29 1999 1265.91 1999 1268.73V1328.02C1999 1334.21 1992.28 1338.05 1986.95 1334.92L1936.95 1305.54C1934.5 1304.1 1933 1301.48 1933 1298.64Z" fill="#FBCDA2"/>
            <path id="Vector_31" d="M2322 2221.64V2162.05C2322 2155.85 2328.75 2152.01 2334.08 2155.17L2384.08 2184.85C2386.51 2186.29 2388 2188.91 2388 2191.73V2251.02C2388 2257.21 2381.28 2261.05 2375.95 2257.92L2325.95 2228.54C2323.5 2227.1 2322 2224.48 2322 2221.64Z" fill="#FBCDA2"/>
            <path id="Vector_32" d="M1747 1214.11V1101C1747 1094.81 1753.73 1090.96 1759.06 1094.1L1855.06 1150.65C1857.5 1152.08 1859 1154.71 1859 1157.54V1270.08C1859 1276.25 1852.3 1280.1 1846.97 1276.99L1750.97 1221.02C1748.51 1219.59 1747 1216.96 1747 1214.11Z" fill="#FFEFE1"/>
            <path id="Vector_33" d="M1995 2269.14V2029C1995 2022.81 2001.73 2018.96 2007.06 2022.1L2211.06 2142.27C2213.5 2143.71 2215 2146.33 2215 2149.16V2388.08C2215 2394.25 2208.3 2398.1 2202.97 2394.99L1998.97 2276.05C1996.51 2274.62 1995 2271.98 1995 2269.14Z" fill="#FBCDA2"/>
            <path id="Vector_34" d="M2235 701.065V484.98C2235 478.795 2241.72 474.949 2247.05 478.083L2431.05 586.214C2433.5 587.651 2435 590.275 2435 593.111V808.092C2435 814.262 2428.31 818.109 2422.98 815.007L2238.98 707.98C2236.52 706.548 2235 703.914 2235 701.065Z" fill="#FBCDA2"/>
        </g>
        <g id="board">
            <path id="Vector_35" d="M281.5 1542.58V1816.89C281.5 1820.5 279.085 1823.66 275.605 1824.61L241.321 1833.96C238.913 1834.61 236.337 1834.11 234.355 1832.59L25.3208 1672.66C23.5248 1671.28 22.3943 1669.21 22.209 1666.96L1.47446 1414.77C1.19133 1411.33 3.15105 1408.09 6.33382 1406.75L32.7977 1395.56C35.1271 1394.58 37.7849 1394.76 39.9651 1396.04L277.554 1535.68C279.999 1537.12 281.5 1539.74 281.5 1542.58Z" fill="#F7A832"/>
            <path id="Vector_36" d="M738.5 535.577V809.89C738.5 813.497 736.085 816.659 732.605 817.608L698.321 826.958C695.913 827.615 693.337 827.11 691.355 825.593L482.321 665.658C480.525 664.284 479.394 662.214 479.209 659.96L458.474 407.771C458.191 404.327 460.151 401.091 463.334 399.746L489.798 388.564C492.127 387.58 494.785 387.755 496.965 389.037L734.554 528.681C736.999 530.118 738.5 532.742 738.5 535.577Z" fill="#1656D1"/>
            <path id="Vector_37" d="M1966 547.385V956.156C1966 959.763 1963.59 962.925 1960.11 963.874L1919.47 974.958C1917.06 975.615 1914.48 975.11 1912.5 973.593L1672.5 789.945C1670.66 788.538 1669.52 786.403 1669.38 784.092L1645.35 400.829C1645.14 397.438 1647.1 394.282 1650.23 392.959L1681.92 379.565C1684.25 378.58 1686.91 378.755 1689.09 380.037L1962.05 540.488C1964.5 541.925 1966 544.549 1966 547.385Z" fill="#F7A832"/>
            <path id="Vector_38" d="M2495.5 1131.58V1405.89C2495.5 1409.5 2493.09 1412.66 2489.6 1413.61L2455.32 1422.96C2452.91 1423.61 2450.34 1423.11 2448.35 1421.59L2239.32 1261.66C2237.52 1260.28 2236.39 1258.21 2236.21 1255.96L2215.47 1003.77C2215.19 1000.33 2217.15 997.091 2220.33 995.746L2246.8 984.564C2249.13 983.58 2251.78 983.755 2253.97 985.037L2491.55 1124.68C2494 1126.12 2495.5 1128.74 2495.5 1131.58Z" fill="#E7A4C8"/>
            <path id="Vector_39" d="M1254.5 148.577V422.89C1254.5 426.497 1252.09 429.659 1248.6 430.608L1214.32 439.958C1211.91 440.615 1209.34 440.11 1207.35 438.593L998.321 278.658C996.525 277.284 995.394 275.214 995.209 272.96L974.474 20.7709C974.191 17.3273 976.151 14.091 979.334 12.7462L1005.8 1.56431C1008.13 0.580021 1010.78 0.755136 1012.97 2.03656L1250.55 141.681C1253 143.118 1254.5 145.742 1254.5 148.577Z" fill="#36AB9D"/>
            <path id="Vector_40" d="M795 1216.08V1490.39C795 1494 792.585 1497.16 789.105 1498.11L754.633 1507.51C752.332 1508.14 749.871 1507.71 747.921 1506.33L426.06 1279.66C424.121 1278.29 422.888 1276.13 422.693 1273.77L401.974 1021.77C401.691 1018.33 403.651 1015.09 406.834 1013.75L433.297 1002.56C435.627 1001.58 438.285 1001.76 440.465 1003.04L791.055 1209.18C793.499 1210.62 795 1213.24 795 1216.08Z" fill="#E7A4C8"/>
            <path id="Vector_41" d="M1496 960.077V1234.39C1496 1238 1493.59 1241.16 1490.1 1242.11L1455.63 1251.51C1453.33 1252.14 1450.87 1251.71 1448.92 1250.33L1127.06 1023.66C1125.12 1022.29 1123.89 1020.13 1123.69 1017.77L1102.97 765.771C1102.69 762.327 1104.65 759.091 1107.83 757.746L1134.3 746.565C1136.63 745.58 1139.29 745.756 1141.47 747.038L1492.05 953.18C1494.5 954.617 1496 957.241 1496 960.077Z" fill="#1656D1"/>
            <path id="Vector_42" d="M2222.5 1651.08V1925.39C2222.5 1929 2220.09 1932.16 2216.6 1933.11L2182.13 1942.51C2179.83 1943.14 2177.37 1942.71 2175.42 1941.33L1853.56 1714.66C1851.62 1713.29 1850.39 1711.13 1850.19 1708.77L1829.47 1456.77C1829.19 1453.33 1831.15 1450.09 1834.33 1448.75L1860.8 1437.56C1863.13 1436.58 1865.79 1436.76 1867.97 1438.04L2218.55 1644.18C2221 1645.62 2222.5 1648.24 2222.5 1651.08Z" fill="#36AB9D"/>
            <path id="Vector_43" d="M0 1690.92V1416.04C0 1409.84 6.74638 1406 12.0792 1409.16L244.079 1546.68C246.51 1548.12 248 1550.73 248 1553.56V1827.03C248 1833.21 241.285 1837.06 235.952 1833.93L3.95175 1697.82C1.50377 1696.38 0 1693.76 0 1690.92Z" fill="#FEFA50"/>
            <path id="Vector_44" d="M457 683.918V409.042C457 402.842 463.746 398.999 469.079 402.16L701.079 539.676C703.51 541.117 705 543.732 705 546.558V820.031C705 826.214 698.285 830.06 692.952 826.931L460.952 690.818C458.504 689.382 457 686.757 457 683.918Z" fill="#387CFF"/>
            <path id="Vector_45" d="M1640 811.813V401.041C1640 394.842 1646.75 390.998 1652.08 394.159L1920.08 552.999C1922.51 554.439 1924 557.055 1924 559.881V969.032C1924 975.215 1917.29 979.061 1911.95 975.932L1643.95 818.713C1641.5 817.277 1640 814.651 1640 811.813Z" fill="#FEFA50"/>
            <path id="Vector_46" d="M2211 1279.92V1005.04C2211 998.842 2217.75 994.999 2223.08 998.16L2455.08 1135.68C2457.51 1137.12 2459 1139.73 2459 1142.56V1416.03C2459 1422.21 2452.28 1426.06 2446.95 1422.93L2214.95 1286.82C2212.5 1285.38 2211 1282.76 2211 1279.92Z" fill="#FFC7EC"/>
            <path id="Vector_47" d="M970 296.918V22.0417C970 15.8425 976.746 11.9989 982.079 15.1598L1214.08 152.676C1216.51 154.117 1218 156.732 1218 159.558V433.031C1218 439.214 1211.28 443.06 1205.95 439.931L973.952 303.818C971.504 302.382 970 299.757 970 296.918Z" fill="#5ABEB2"/>
            <path id="Vector_48" d="M400 1297.91V1023C400 1016.81 406.728 1012.96 412.061 1016.11L757.561 1219.68C760.002 1221.12 761.5 1223.74 761.5 1226.57V1500.05C761.5 1506.23 754.793 1510.08 749.46 1506.96L403.96 1304.82C401.507 1303.38 400 1300.75 400 1297.91Z" fill="#FFC7EC"/>
            <path id="Vector_49" d="M1101 1041.91V766.999C1101 760.809 1107.73 756.964 1113.06 760.107L1458.56 963.679C1461 965.117 1462.5 967.739 1462.5 970.572V1244.05C1462.5 1250.23 1455.79 1254.08 1450.46 1250.96L1104.96 1048.82C1102.51 1047.38 1101 1044.75 1101 1041.91Z" fill="#387CFF"/>
            <path id="Vector_50" d="M1825 1732.91V1458C1825 1451.81 1831.73 1447.96 1837.06 1451.11L2182.56 1654.68C2185 1656.12 2186.5 1658.74 2186.5 1661.57V1935.05C2186.5 1941.23 2179.79 1945.08 2174.46 1941.96L1828.96 1739.82C1826.51 1738.38 1825 1735.75 1825 1732.91Z" fill="#5ABEB2"/>
        </g>
        <path id="Vector_51" d="M1196.31 2121.58L1339.08 2028.84C1342.77 2026.45 1345 2022.34 1345 2017.94V2003L978.639 1801.38C974.807 1799.27 970.171 1799.23 966.303 1801.27L820 1878.5V1896.64C820 1901.21 822.393 1905.44 826.305 1907.79L1182.54 2121.82C1186.8 2124.38 1192.14 2124.28 1196.31 2121.58Z" fill="#A5A5A5"/>
        <path id="Vector_52" d="M965.877 1783.07L826.328 1868.75C817.996 1873.86 818.081 1886 826.482 1891L1182.72 2102.97C1186.89 2105.44 1192.09 2105.4 1196.21 2102.85L1339.09 2014.4C1347.43 2009.23 1347.26 1997.04 1338.78 1992.11L979.217 1782.91C975.08 1780.5 969.956 1780.56 965.877 1783.07Z" fill="white"/>
        <path id="Vector_53" d="M984.921 1811.04L873.347 1879.5C865.01 1884.61 865.095 1896.76 873.503 1901.75L1073.22 2020.47C1077.39 2022.95 1082.58 2022.9 1086.7 2020.35L1200.9 1949.71C1209.26 1944.53 1209.07 1932.3 1200.55 1927.39L998.208 1810.86C994.08 1808.48 988.982 1808.55 984.921 1811.04Z" fill="#E5E5E5"/>
        <path id="Vector_54" d="M1225.15 1952.71L1184.04 1976.66C1175.49 1981.64 1175.42 1993.98 1183.92 1999.05L1245.85 2036.03C1249.95 2038.48 1255.06 2038.48 1259.16 2036.04L1302.38 2010.36C1311.02 2005.23 1310.81 1992.65 1302.01 1987.8L1237.96 1952.55C1233.96 1950.35 1229.1 1950.41 1225.15 1952.71Z" fill="#E5E5E5"/>
        <path id="Vector_55" d="M1145.24 2007.81L1118.45 2021.96C1109.48 2026.69 1109.15 2039.41 1117.86 2044.61L1178.65 2080.91C1182.85 2083.42 1188.11 2083.35 1192.25 2080.74L1218.54 2064.15C1226.87 2058.89 1226.56 2046.64 1217.97 2041.82L1157.67 2007.97C1153.83 2005.81 1149.14 2005.75 1145.24 2007.81Z" fill="#E5E5E5"/>
        <path id="Vector_56" d="M1372 2044.99L1232.39 2130.71C1224.04 2135.83 1224.15 2148 1232.58 2152.98L1363.73 2230.5C1367.89 2232.96 1373.08 2232.91 1377.19 2230.36L1519.73 2142.12C1528.15 2136.91 1527.88 2124.56 1519.23 2119.72L1385.15 2044.72C1381.04 2042.42 1376.02 2042.53 1372 2044.99Z" fill="#9D9D9D"/>
        <path id="Vector_57" d="M597.859 2874.78L640.359 2892.28L658.359 2826.09L614.859 2811.78C582.123 2817.05 580.699 2860.29 597.859 2874.78Z" fill="#E4E4E4"/>
        <path id="Vector_58" d="M1391 2074.5C1354.32 2077.46 1312.74 2115.72 1310.5 2134C1319.87 2155.77 1338.86 2190.52 1355 2192C1371.14 2193.48 1419.99 2161.73 1436.5 2145.5V2108C1436.5 2097.14 1427.68 2071.54 1391 2074.5Z" fill="white"/>
        <path id="Vector_59" d="M856.219 3015.28L898.719 3032.78L916.718 2966.59L873.218 2952.28C840.482 2957.55 839.059 3000.79 856.219 3015.28Z" fill="#E4E4E4"/>
        <path id="Vector_60" d="M1174.22 2922.28L1216.72 2939.78L1234.72 2873.59L1191.22 2859.28C1158.48 2864.55 1157.06 2907.79 1174.22 2922.28Z" fill="#E4E4E4"/>
        <path id="Vector_61" d="M614.859 2812.28V2795.78L909.859 2725.28L1172.5 2620.5V2645.5L1002.86 2748.78L1244.36 2841.28L1237.36 2878.78L1073.61 2825.53L981.742 2787.88C973.696 2784.58 964.54 2788.79 961.811 2797.05L906.859 2963.28L885.359 2958.28L909.859 2772.28L650.359 2814.28V2823.28L614.859 2812.28Z" fill="#9D9D9D"/>
        <path id="Vector_62" d="M1283.36 2168.28C1282.69 2160.61 1284.36 2142.28 1296.36 2130.28C1311.36 2115.28 1313.36 2113.78 1318.86 2116.28L1322.86 2118.78C1330.03 2111.78 1345.86 2096.48 1351.86 2091.28C1357.86 2086.08 1375.69 2083.78 1383.86 2083.28C1391.69 2087.28 1408.46 2096.98 1412.86 2103.78C1418.36 2112.28 1381.36 2180.28 1334.36 2198.78C1317.18 2205.54 1308.26 2209.15 1304.17 2210.89L1304.36 2211.28C1301.28 2212.37 1299.31 2212.95 1304.17 2210.89L1283.36 2168.28Z" fill="#FBCDA2"/>
        <path id="Vector_63" d="M1412.86 2103.78C1418.36 2112.28 1381.36 2180.28 1334.36 2198.78C1317.18 2205.54 1308.26 2209.15 1304.17 2210.89L1304.36 2211.28C1301.28 2212.37 1299.3 2212.95 1304.17 2210.89L1293.86 2189.78C1305.57 2177.85 1332.7 2152.8 1347.5 2148C1362.3 2143.2 1387.2 2108.19 1397.8 2091.28C1404.2 2095.36 1410.42 2100.02 1412.86 2103.78Z" fill="#F9C18D"/>
        <path id="Vector_64" d="M1071.86 1815.78C1078.26 1796.58 1071.53 1779.78 1067.36 1773.78L892.359 1848.78C893.193 1853.61 893.959 1868.58 890.359 1889.78C886.759 1910.98 862.526 1918.61 850.859 1919.78C851.859 1925.78 858.359 1943.68 876.359 1967.28C894.359 1990.88 967.526 1994.78 1001.86 1993.78C995.026 1980.28 982.76 1948.98 988.36 1931.78C995.36 1910.28 1009.86 1917.78 1026.36 1919.78C1042.86 1921.78 1063.36 1876.28 1062.36 1857.78C1061.36 1839.28 1063.86 1839.78 1071.86 1815.78Z" fill="#FBCDA2"/>
        <path id="Vector_65" d="M1062.36 1857.78C1061.36 1839.28 1063.86 1839.78 1071.86 1815.78C1073.95 1809.5 1074.64 1803.47 1074.47 1798C1068.98 1802.33 1057.5 1816.4 1055.5 1838C1053 1865 1035 1901 1013.5 1898.5C992 1896 954 1878 946 1909C939.6 1933.8 921.333 1970.56 913 1985.83C942.126 1993.06 979.921 1994.42 1001.86 1993.78C995.026 1980.28 982.76 1948.98 988.36 1931.78C995.36 1910.28 1009.86 1917.78 1026.36 1919.78C1042.86 1921.78 1063.36 1876.28 1062.36 1857.78Z" fill="#F9C18D"/>
        <path id="Vector_66" d="M816.859 1905.28C830.859 1905.28 858.026 1910.95 869.859 1913.78C869.859 1913.78 869.859 1941.99 888.359 1960.78C913.959 1986.78 972.693 1988.95 998.859 1986.78C1005.19 1993.78 1026.86 2012.58 1062.86 2031.78C1098.86 2050.98 1149.53 2177.78 1170.36 2238.78L1281.86 2166.28C1310.66 2167.08 1329.53 2193.28 1335.36 2206.28C1304.53 2238.45 1232.96 2311.08 1193.36 2344.28C1153.76 2377.48 1119.53 2358.11 1107.36 2344.28V2434.28C1107.36 2453.48 1003.36 2519.95 966.359 2545.78L744.859 2185.78C744.359 2133.45 744.759 2017.78 750.359 1973.78C757.359 1918.78 799.359 1905.28 816.859 1905.28Z" fill="#387CFF"/>
        <path id="Vector_67" d="M1107.36 2434.28C1107.36 2453.48 1003.36 2519.95 966.359 2545.78L836.363 2334.5C847.529 2287.33 864.387 2178.4 842.5 2120C815.141 2047 985.5 2068.5 1031.5 2076.5C1077.5 2084.5 1114.5 2294 1155 2293C1187.4 2292.2 1273.83 2216.09 1313 2178.13C1324.36 2186.99 1332.01 2198.81 1335.36 2206.28C1304.53 2238.45 1232.96 2311.08 1193.36 2344.28C1153.76 2377.48 1119.53 2358.11 1107.36 2344.28V2434.28Z" fill="#1656D1"/>
        <path id="Vector_68" d="M902.859 1714.78C847.659 1757.98 872.859 1834.78 892.359 1867.78C903.859 1881.28 921.859 1887.28 940.359 1881.28C972.512 1870.85 994.859 1815.28 1019.36 1811.28C1038.96 1808.08 1040.53 1827.61 1038.86 1837.78C1044.46 1831.78 1046.53 1804.28 1046.86 1791.28C1078.86 1784.08 1085.19 1753.61 1084.36 1739.28C1090.86 1733.78 1102.86 1722.78 1098.86 1722.78H1080.36C1096.36 1718.38 1093.69 1701.95 1090.36 1694.28C1050.86 1683.11 958.059 1671.58 902.859 1714.78Z" fill="#6B4021"/>
        <path id="Vector_69" d="M1098.86 1722.78H1080.36C1091.55 1719.7 1093.61 1710.74 1092.7 1703C1091.63 1706.93 1080.1 1714.78 1042.5 1714.78C995.5 1714.78 962 1719 959.5 1747.5C957 1776 949.5 1793.5 929 1800C908.5 1806.5 875.501 1808.5 877.501 1834.5C881.829 1847.65 887.287 1859.2 892.359 1867.78C903.86 1881.28 921.86 1887.28 940.36 1881.28C972.512 1870.85 994.86 1815.28 1019.36 1811.28C1038.96 1808.08 1040.53 1827.61 1038.86 1837.78C1044.46 1831.78 1046.53 1804.28 1046.86 1791.28C1078.86 1784.08 1085.19 1753.61 1084.36 1739.28C1090.86 1733.78 1102.86 1722.78 1098.86 1722.78Z" fill="#512E15"/>
        <path id="Vector_70" d="M661.359 2186.28C654.159 2105.08 664.359 2021.11 670.359 1989.28C670.359 1901.28 892.026 2025.95 1002.86 2099.28C1011.69 2100.78 1024.06 2123.78 1002.86 2203.78C976.359 2303.78 993.859 2459.78 979.359 2580.78C964.859 2701.78 870.359 2707.28 740.859 2635.28C611.359 2563.28 661.359 2446.78 670.359 2387.78C679.359 2328.78 670.359 2287.78 661.359 2186.28Z" fill="#E4E4E4"/>
        <path id="Vector_71" d="M890.359 2713.28V2670.28L969.359 2655.28V2713.28C966.026 2717.78 954.859 2726.78 936.859 2726.78C918.859 2726.78 898.359 2717.78 890.359 2713.28Z" fill="white"/>
        <path id="Vector_72" d="M866.86 2726.28C893.26 2716.28 870.526 2687.11 855.86 2673.78C889.526 2662.28 965.759 2643.48 1001.36 2660.28C1045.86 2681.28 1116.86 2635.78 1147.36 2621.28C1171.76 2609.68 1173.86 2616.45 1171.86 2621.28C1114.36 2648.61 998.059 2706.48 992.859 2719.28C987.659 2732.08 1153.36 2798.95 1236.86 2830.78C1241.03 2833.11 1247.96 2839.68 1242.36 2847.28C1235.36 2856.78 1002.36 2753.78 967.859 2753.78C933.359 2753.78 903.359 2960.78 885.359 2958.78C867.359 2956.78 914.859 2768.28 903.359 2753.78C891.859 2739.28 704.86 2789.78 653.36 2797.78C612.16 2804.18 610.86 2795.11 615.36 2789.78C688.193 2772.78 840.46 2736.28 866.86 2726.28Z" fill="#E4E4E4"/>
        <path id="Vector_73" d="M648.859 2894.28C664.599 2894.28 677.359 2878.61 677.359 2859.28C677.359 2839.95 664.599 2824.28 648.859 2824.28C633.119 2824.28 620.359 2839.95 620.359 2859.28C620.359 2878.61 633.119 2894.28 648.859 2894.28Z" fill="#9D9D9D"/>
        <path id="Vector_74" d="M1065.86 2634.78C965.459 2696.38 872.667 2683.67 866.5 2670C866.5 2658 900.585 2607.14 911 2610C939.141 2617.72 982 2605.5 1006.86 2592.28L1241.36 2462.78L1253.36 2472.78V2500.78C1251.86 2526.78 1191.36 2557.78 1065.86 2634.78Z" fill="#D1D1D1"/>
        <path id="Vector_75" d="M979.359 2580.78C964.859 2701.78 870.359 2707.28 740.859 2635.28C638.418 2578.32 648.301 2493.52 661.359 2431.36C670.718 2543.23 740.859 2551.5 811.5 2535.5C882.141 2519.5 882.5 2335.5 882.5 2212C882.5 2113.2 913.5 2064.94 929 2053.16C956.142 2069.18 981.549 2085.18 1002.86 2099.28C1011.69 2100.78 1024.06 2123.78 1002.86 2203.78C976.359 2303.78 993.859 2459.78 979.359 2580.78Z" fill="#D1D1D1"/>
        <path id="Vector_76" d="M907.219 3034.78C922.959 3034.78 935.719 3019.11 935.719 2999.78C935.719 2980.45 922.959 2964.78 907.219 2964.78C891.479 2964.78 878.719 2980.45 878.719 2999.78C878.719 3019.11 891.479 3034.78 907.219 3034.78Z" fill="#9D9D9D"/>
        <path id="Vector_77" d="M1225.22 2941.78C1240.96 2941.78 1253.72 2926.11 1253.72 2906.78C1253.72 2887.45 1240.96 2871.78 1225.22 2871.78C1209.48 2871.78 1196.72 2887.45 1196.72 2906.78C1196.72 2926.11 1209.48 2941.78 1225.22 2941.78Z" fill="#9D9D9D"/>
        <path id="Vector_78" d="M1165.5 2713C1181.24 2713 1194 2697.33 1194 2678C1194 2658.67 1181.24 2643 1165.5 2643C1149.76 2643 1137 2658.67 1137 2678C1137 2697.33 1149.76 2713 1165.5 2713Z" fill="#9D9D9D"/>
    </g>
    <defs>
        <clipPath id="clip0_1_2">
            <rect width="2496" height="3035" fill="white"/>
        </clipPath>
    </defs>
</svg>
