<svg xmlns="http://www.w3.org/2000/svg" width="1950" height="1000" fill="white" xmlns:v="https://vecta.io/nano"><style><![CDATA[.A{animation:moving2 ease-in-out 7s infinite alternate;animation-delay:1s}.B{animation:moving1 ease-in-out 10s infinite alternate}.C{animation:moving3 ease-in-out 10s infinite alternate}@keyframes moving2{0%{transform:rotateY(10deg)}50%{transform:rotateY(0deg)}100%{transform:rotateY(10deg)}} @keyframes moving1{0%{transform:translateY(50px) rotateY(20deg)}50%{transform:translateY(0px) rotateY(0deg)}100%{transform:translateY(50px) rotateY(20deg)}} @keyframes moving3{0%{transform:translateY(0px) translateX(0px)}50%{transform:translateY(50px) translateX(50px)}100%{transform:translateY(0px) translateX(0px)}} @keyframes moving2{0%{transform:rotateY(10deg)}50%{transform:rotateY(0deg)}100%{transform:rotateY(10deg)}} @keyframes moving1{0%{transform:translateY(50px) rotateY(20deg)}50%{transform:translateY(0px) rotateY(0deg)}100%{transform:translateY(50px) rotateY(20deg)}} @keyframes moving3{0%{transform:translateY(0px) translateX(0px)}50%{transform:translateY(50px) translateX(50px)}100%{transform:translateY(0px) translateX(0px)}}]]></style><g clip-path="url(#A)"><path class="A" d="M-18.829 838.984l67.252-11.091c67.359-11.268 201.864-33.452 336.31-6.22s268.619 104.231 403.078 127.635c134.458 23.578 268.989-6.262 403.689-55.766 134.7-49.678 269.37-118.843 403.93-125.89 134.56-6.873 268.8 48.55 336.03 76.259l67.12 27.711-1.16 348.008-67.22 1-336.3 5-403.53 6-403.522 6-403.525 6-336.305 5-67.219 1 1.372-410.646z" opacity=".95"/><path class="B" d="M0 751.667l63.3-4.889c63.4-4.889 190-14.667 316.7 10.633 126.7 25.178 253.3 85.556 380 113.789 126.7 28.356 253.3 24.689 380-4.644s253.3-84.334 380-84.334 253.3 55 316.7 82.5l63.3 27.5v208.998h-63.3H1520h-380-380-380H63.3 0V751.667z" opacity=".6"/><path class="C" d="M-154 959.642l79.691-44.305c79.817-44.428 239.2-133.039 398.709-139.996s318.891 67.984 478.4 110.215c159.509 42.352 318.89 52.116 478.4 30.513 159.51-21.481 318.89-74.453 478.4-94.347s318.89-6.957 398.71-.366l79.69 6.468v274.616h-79.69-398.71-478.4-478.4-478.4-398.709H-154V959.642z" opacity=".3"/></g><defs><clipPath id="A"><path fill="#fff" d="M0 0h1950v1000H0z"/></clipPath></defs></svg>